<svg width="90" height="52" viewBox="0 0 90 52" fill="none" xmlns="http://www.w3.org/2000/svg">
<path d="M18.6442 44.3214H74.4592C79.1144 44.3214 83.4639 46.1138 86.7554 49.3728L88.942 51.5377C89.0595 51.6541 89.2241 51.7239 89.3887 51.7239C89.4592 51.7239 89.5532 51.7006 89.6238 51.6774C89.8589 51.5842 89.9999 51.3514 89.9999 51.1187V25.8616C89.9999 15.689 81.6535 7.40186 71.3557 7.40186H18.6442C8.36991 7.40186 0 15.6657 0 25.8616C0.023511 36.0343 8.36991 44.3214 18.6442 44.3214Z" fill="#C18714"/>
<path d="M71.3793 4.53955H18.6442C8.36991 4.53955 0 12.8267 0 22.9993C0 33.172 8.3464 41.4591 18.6442 41.4591H74.4592C79.1144 41.4591 83.4639 43.2515 86.7554 46.5105L88.942 48.6754C89.0595 48.7918 89.2241 48.8616 89.3887 48.8616C89.4592 48.8616 89.5532 48.8383 89.6238 48.815C89.8589 48.7219 89.9999 48.4891 89.9999 48.2564V22.9993C90.0235 12.8267 81.6771 4.53955 71.3793 4.53955Z" fill="#DD9F12"/>
<path d="M87.5313 43.8331C83.9106 40.6905 79.326 38.9679 74.4592 38.9679H18.6442C9.73356 38.9679 2.49219 31.7982 2.49219 22.9757C2.49219 14.1531 9.73356 6.9834 18.6442 6.9834H71.3793C80.2899 6.9834 87.5313 14.1531 87.5313 22.9757V43.8331Z" fill="#FAB818"/>
<path d="M17.2433 14.5282C16.6948 14.5282 16.2768 14.761 15.9633 15.2007C15.6499 15.6404 15.4931 16.2612 15.4931 17.0371C15.4931 18.6665 16.1201 19.4942 17.374 19.4942C17.7397 19.4942 18.1315 19.4425 18.4711 19.339C18.8107 19.2355 19.1764 19.1062 19.5421 18.951V20.8909C18.8368 21.2012 18.027 21.3564 17.1127 21.3564C15.8327 21.3564 14.8401 20.9943 14.1348 20.2443C13.4556 19.4942 13.0898 18.4338 13.0898 17.0371C13.0898 16.1577 13.2466 15.3818 13.5862 14.7352C13.9258 14.0627 14.396 13.5713 15.0229 13.2092C15.6499 12.8471 16.3813 12.666 17.2433 12.666C18.1576 12.666 19.0458 12.8729 19.8818 13.2609L19.1764 15.0714C18.863 14.9162 18.5495 14.8128 18.236 14.7093C17.9487 14.58 17.6091 14.5282 17.2433 14.5282Z" fill="#005C2F"/>
<path d="M25.2356 21.2269V17.6576C25.2356 16.7782 24.9743 16.3385 24.4519 16.3385C24.0862 16.3385 23.7988 16.4937 23.6159 16.8041C23.4331 17.1144 23.3547 17.6317 23.3547 18.3559V21.2527H21.082V12.2261H23.3808V13.5193C23.3808 14.0883 23.3547 14.7608 23.2763 15.5108H23.3808C23.5898 15.1746 23.851 14.9418 24.1645 14.7866C24.4519 14.6573 24.8176 14.5797 25.2094 14.5797C25.9409 14.5797 26.5156 14.7867 26.9335 15.2263C27.3515 15.6402 27.5605 16.235 27.5605 17.011V21.2786H25.2356V21.2269Z" fill="#005C2F"/>
<path d="M33.4143 21.2282L32.9702 20.3488H32.9179C32.6044 20.7368 32.291 20.9954 31.9775 21.1247C31.664 21.254 31.2461 21.3316 30.7497 21.3316C30.1228 21.3316 29.6265 21.1506 29.2869 20.7626C28.9211 20.4005 28.7383 19.8832 28.7383 19.2108C28.7383 18.5124 28.9734 17.9951 29.4697 17.6589C29.966 17.3227 30.6714 17.1157 31.6118 17.0899L32.7089 17.064V16.9606C32.7089 16.4174 32.4477 16.1588 31.8991 16.1588C31.4028 16.1588 30.802 16.314 30.0444 16.6502L29.3913 15.1501C30.175 14.7621 31.1416 14.5552 32.3171 14.5552C33.1791 14.5552 33.8322 14.7621 34.3024 15.1759C34.7726 15.5898 35.0077 16.1846 35.0077 16.9347V21.2282H33.4143ZM31.7424 19.7539C32.0297 19.7539 32.2649 19.6763 32.4477 19.4953C32.6567 19.3142 32.7351 19.1073 32.7351 18.8228V18.3055L32.2126 18.3314C31.455 18.3572 31.0893 18.6417 31.0893 19.159C31.0893 19.547 31.2983 19.7539 31.7424 19.7539Z" fill="#005C2F"/>
<path d="M39.8164 19.5712C40.1298 19.5712 40.4956 19.4936 40.9135 19.3384V20.9937C40.6001 21.1231 40.3127 21.2265 40.0253 21.2782C39.738 21.33 39.4245 21.3558 39.0327 21.3558C38.2751 21.3558 37.7004 21.1748 37.3608 20.7868C37.0212 20.4247 36.8645 19.8298 36.8645 19.0798V16.364H36.0547V15.4329L37.0735 14.7087L37.6743 13.3379H39.1633V14.657H40.7829V16.364H39.1633V18.9246C39.1894 19.3384 39.3984 19.5712 39.8164 19.5712Z" fill="#005C2F"/>
<path d="M45.2712 21.3575C44.174 21.3575 43.312 21.073 42.7112 20.4781C42.1103 19.9091 41.7969 19.0814 41.7969 17.9951C41.7969 16.883 42.0842 16.0294 42.6328 15.4346C43.1814 14.8397 44.0173 14.5552 45.0622 14.5552C46.0549 14.5552 46.8386 14.8138 47.3871 15.3311C47.9357 15.8484 48.1969 16.5985 48.1969 17.5554V18.5641H44.0957C44.1218 18.9262 44.2524 19.2107 44.5136 19.4177C44.7749 19.6246 45.1145 19.728 45.5586 19.728C45.9504 19.728 46.3422 19.7022 46.6557 19.6246C46.9692 19.547 47.361 19.4177 47.7529 19.2366V20.8661C47.3871 21.0471 47.0214 21.1764 46.6296 21.254C46.2639 21.3058 45.8198 21.3575 45.2712 21.3575ZM45.1406 16.107C44.8794 16.107 44.6443 16.1846 44.4614 16.3657C44.2785 16.5209 44.174 16.8054 44.1479 17.1675H46.1071C46.1071 16.8571 46.0026 16.5985 45.8459 16.4174C45.6892 16.2364 45.4279 16.107 45.1406 16.107Z" fill="#005C2F"/>
<path d="M53.8127 21.2282L53.3686 20.3488H53.3164C53.0029 20.7368 52.6894 20.9954 52.3759 21.1247C52.0625 21.254 51.6445 21.3316 51.1482 21.3316C50.5212 21.3316 50.0249 21.1506 49.6853 20.7626C49.3196 20.4005 49.1367 19.8832 49.1367 19.2108C49.1367 18.5124 49.3718 17.9951 49.8682 17.6589C50.3645 17.3227 51.0698 17.1157 52.0102 17.0899L53.1074 17.064V16.9606C53.1074 16.4174 52.8461 16.1588 52.2976 16.1588C51.8012 16.1588 51.2004 16.314 50.4429 16.6502L49.7898 15.1501C50.5735 14.7621 51.54 14.5552 52.7155 14.5552C53.5776 14.5552 54.2306 14.7621 54.7009 15.1759C55.1711 15.5898 55.4062 16.1846 55.4062 16.9347V21.2282H53.8127ZM52.1147 19.7539C52.402 19.7539 52.6372 19.6763 52.82 19.4953C53.029 19.3142 53.1074 19.1073 53.1074 18.8228V18.3055L52.5849 18.3314C51.8273 18.3572 51.4616 18.6417 51.4616 19.159C51.4616 19.547 51.6706 19.7539 52.1147 19.7539Z" fill="#005C2F"/>
<path d="M16.5805 32.9952C15.4834 32.9952 14.6736 32.7107 14.125 32.1158C13.5764 31.5468 13.2891 30.6932 13.2891 29.6069C13.2891 28.5206 13.6025 27.6671 14.2034 27.0722C14.8042 26.4774 15.6662 26.167 16.7895 26.167C17.5471 26.167 18.2785 26.3222 18.9577 26.6584L18.2785 28.3396C17.9911 28.2103 17.7561 28.1327 17.5209 28.0551C17.2858 27.9775 17.0507 27.9516 16.7895 27.9516C16.4238 27.9516 16.1364 28.1068 15.9275 28.3913C15.7185 28.6758 15.614 29.0897 15.614 29.6069C15.614 30.6674 16.0058 31.1847 16.7895 31.1847C17.4687 31.1847 18.0956 31.0036 18.7226 30.6157V32.4262C18.0956 32.7883 17.3903 32.9952 16.5805 32.9952Z" fill="#005C2F"/>
<path d="M26.3512 29.5811C26.3512 30.6674 26.0639 31.4951 25.4892 32.0899C24.9145 32.6848 24.0786 32.9952 23.0336 32.9952C22.0149 32.9952 21.2312 32.6848 20.6304 32.0641C20.0295 31.4433 19.7422 30.6157 19.7422 29.5811C19.7422 28.5207 20.0295 27.693 20.6042 27.0981C21.1789 26.5032 22.0149 26.2188 23.0598 26.2188C23.7128 26.2188 24.2875 26.3481 24.7839 26.6326C25.2802 26.9171 25.672 27.305 25.9333 27.8223C26.2206 28.2879 26.3512 28.8828 26.3512 29.5811ZM22.041 29.5811C22.041 30.1501 22.1194 30.564 22.2761 30.8743C22.4328 31.1588 22.694 31.314 23.0336 31.314C23.3994 31.314 23.6345 31.1588 23.7912 30.8743C23.9479 30.5898 24.0002 30.1501 24.0002 29.5811C24.0002 29.0121 23.9218 28.5983 23.7651 28.3138C23.6083 28.0292 23.3732 27.8741 23.0075 27.8741C22.6679 27.8741 22.4067 28.0034 22.25 28.2879C22.0932 28.5724 22.041 29.0121 22.041 29.5811Z" fill="#005C2F"/>
<path d="M31.8398 32.8659V29.2966C31.8398 28.8569 31.7875 28.5207 31.6569 28.3137C31.5263 28.1068 31.3173 27.9775 31.0561 27.9775C30.6643 27.9775 30.403 28.1327 30.2202 28.4431C30.0373 28.7534 29.959 29.2707 29.959 30.0208V32.8917H27.6602V26.3222H29.3842L29.6716 27.124H29.8022C29.9851 26.8136 30.2724 26.5808 30.612 26.4257C30.9516 26.2705 31.3435 26.1929 31.8137 26.1929C32.5451 26.1929 33.1198 26.3998 33.5378 26.8136C33.9557 27.2275 34.1386 27.8223 34.1386 28.5982V32.8659H31.8398Z" fill="#005C2F"/>
<path d="M43.8241 32.8668V29.2975C43.8241 28.8578 43.7719 28.5216 43.6413 28.2888C43.5106 28.056 43.3278 27.9526 43.0666 27.9526C42.727 27.9526 42.4657 28.1077 42.2829 28.3922C42.1261 28.7026 42.0478 29.1423 42.0478 29.7889V32.8409H39.749V29.2716C39.749 28.8319 39.6967 28.4957 39.5661 28.2629C39.4616 28.0301 39.2526 27.9267 38.9914 27.9267C38.6257 27.9267 38.3645 28.0819 38.2077 28.3922C38.051 28.7026 37.9726 29.2199 37.9726 29.9441V32.8151H35.6738V26.2455H37.3979L37.6853 27.0473H37.8159C37.9988 26.7369 38.2338 26.5042 38.5734 26.349C38.913 26.1938 39.2788 26.1162 39.7229 26.1162C40.6894 26.1162 41.3425 26.4007 41.7343 26.9697H41.9171C42.1 26.7111 42.3612 26.4783 42.7008 26.3231C43.0404 26.1679 43.4061 26.0903 43.798 26.0903C44.5817 26.0903 45.1564 26.2972 45.5482 26.6852C45.9139 27.0732 46.0968 27.6939 46.0968 28.4957V32.7633H43.8241V32.8668Z" fill="#005C2F"/>
<path d="M47.6172 24.6674C47.6172 24.3312 47.7217 24.0725 47.9045 23.9173C48.0874 23.7621 48.4009 23.6587 48.8188 23.6587C49.2368 23.6587 49.5503 23.7363 49.7592 23.9173C49.9421 24.0984 50.0466 24.3312 50.0466 24.6674C50.0466 25.3399 49.6286 25.6761 48.8188 25.6761C48.009 25.6761 47.6172 25.3399 47.6172 24.6674ZM49.9682 32.8664H47.6694V26.2969H49.9682V32.8664Z" fill="#005C2F"/>
<path d="M57.8014 26.3222V27.4085L56.8871 27.7447C57.0177 27.9775 57.07 28.2362 57.07 28.5207C57.07 29.219 56.8088 29.788 56.3124 30.176C55.8161 30.5639 55.0585 30.7709 54.0659 30.7709C53.8308 30.7709 53.6218 30.745 53.4912 30.7191C53.4389 30.8226 53.4128 30.9261 53.4128 31.0036C53.4128 31.1071 53.5173 31.2106 53.7002 31.2623C53.883 31.314 54.1181 31.3399 54.4316 31.3399H55.5287C57.0177 31.3399 57.7492 31.9606 57.7492 33.2021C57.7492 34.0039 57.4096 34.6246 56.7043 35.0643C56.0251 35.504 55.0585 35.7368 53.8046 35.7368C52.8642 35.7368 52.1328 35.5816 51.6365 35.2713C51.1401 34.9609 50.8789 34.5212 50.8789 33.9263C50.8789 33.1504 51.3752 32.6331 52.3418 32.4003C52.1328 32.3227 51.9499 32.1675 51.8193 31.9865C51.6626 31.8054 51.5842 31.5985 51.5842 31.4175C51.5842 31.2106 51.6365 31.0295 51.741 30.8743C51.8454 30.7191 52.0806 30.5381 52.4463 30.3053C52.1067 30.1501 51.8454 29.9173 51.6365 29.607C51.4275 29.2966 51.3491 28.9086 51.3491 28.4431C51.3491 27.7189 51.5842 27.1757 52.0805 26.7877C52.5769 26.3998 53.2822 26.1929 54.1965 26.1929C54.3271 26.1929 54.5361 26.2187 54.8234 26.2446C55.1108 26.2705 55.3459 26.2963 55.4765 26.3222H57.8014ZM52.812 33.6935C52.812 33.8746 52.9165 34.0298 53.1255 34.1332C53.3344 34.2367 53.5957 34.3143 53.9353 34.3143C54.4838 34.3143 54.9279 34.2367 55.2675 34.1074C55.6071 33.978 55.7638 33.797 55.7638 33.5901C55.7638 33.409 55.6594 33.3056 55.4504 33.228C55.2414 33.1504 54.954 33.1245 54.5883 33.1245H53.7002C53.4651 33.1245 53.2561 33.1762 53.0732 33.3056C52.8903 33.3832 52.812 33.5383 52.812 33.6935ZM53.5434 28.4689C53.5434 29.1414 53.7785 29.4776 54.2487 29.4776C54.4577 29.4776 54.6406 29.4 54.7451 29.219C54.8757 29.0638 54.9279 28.8052 54.9279 28.4689C54.9279 27.7965 54.6928 27.4602 54.2487 27.4602C53.7785 27.4602 53.5434 27.7965 53.5434 28.4689Z" fill="#005C2F"/>
<path d="M65.1422 29.5811C65.1422 30.6674 64.8549 31.4951 64.2802 32.0899C63.7055 32.6848 62.8696 32.9952 61.8247 32.9952C60.8059 32.9952 60.0222 32.6848 59.4214 32.0641C58.8205 31.4433 58.5332 30.6157 58.5332 29.5811C58.5332 28.5207 58.8205 27.693 59.3952 27.0981C59.9699 26.5032 60.8059 26.2188 61.8508 26.2188C62.5039 26.2188 63.0786 26.3481 63.5749 26.6326C64.0712 26.9171 64.4631 27.305 64.7243 27.8223C65.0116 28.2879 65.1422 28.8828 65.1422 29.5811ZM60.8581 29.5811C60.8581 30.1501 60.9365 30.564 61.0932 30.8743C61.25 31.1588 61.5112 31.314 61.8508 31.314C62.2165 31.314 62.4516 31.1588 62.6083 30.8743C62.7651 30.5898 62.8173 30.1501 62.8173 29.5811C62.8173 29.0121 62.739 28.5983 62.5822 28.3138C62.4255 28.0292 62.1904 27.8741 61.8247 27.8741C61.4851 27.8741 61.2238 28.0034 61.0671 28.2879C60.9104 28.5724 60.8581 29.0121 60.8581 29.5811Z" fill="#005C2F"/>
<path d="M62.3887 21.0437L63.8944 15.4103C63.0373 13.8739 62.5972 12.1513 62.5972 10.3822C62.5972 4.65568 67.2303 0 72.9522 0C78.6741 0 83.3072 4.65568 83.3072 10.3822C83.3072 16.1086 78.6741 20.7876 72.9522 20.7876C71.2379 20.7876 69.5469 20.3453 68.0411 19.5306L62.3887 21.0437ZM68.2959 17.4122L68.6434 17.6217C69.9407 18.3899 71.4233 18.8089 72.929 18.8089C77.5622 18.8089 81.315 15.0378 81.315 10.3822C81.315 5.72648 77.5622 1.95538 72.929 1.95538C68.2959 1.95538 64.5431 5.72648 64.5431 10.3822C64.5431 11.9185 64.9601 13.4316 65.7709 14.7585L65.9793 15.1077L65.1454 18.2503L68.2959 17.4122Z" fill="white"/>
<path d="M68.2939 17.4114L68.6413 17.6209C69.9386 18.3891 71.4212 18.8081 72.927 18.8081C77.5601 18.8081 81.3129 15.037 81.3129 10.3814C81.3129 5.72569 77.5601 1.95459 72.927 1.95459C68.2939 1.95459 64.541 5.72569 64.541 10.3814C64.541 11.9177 64.958 13.4308 65.7688 14.7577L65.9773 15.1069L65.1433 18.2495L68.2939 17.4114Z" fill="#00BF00"/>
<path fill-rule="evenodd" clip-rule="evenodd" d="M76.7728 11.8486C76.3558 11.5926 75.7999 11.3132 75.2902 11.5227C74.8964 11.6857 74.6648 12.2909 74.4099 12.5935C74.2941 12.7565 74.1319 12.7797 73.9235 12.7099C72.4872 12.128 71.3752 11.1735 70.5644 9.8234C70.4254 9.6139 70.4486 9.45094 70.6108 9.26472C70.8424 8.98537 71.1436 8.65948 71.2131 8.26375C71.2826 7.89129 71.0973 7.42573 70.9351 7.09983C70.7266 6.65754 70.5181 6.0523 70.078 5.79624C69.6842 5.56345 69.1513 5.70313 68.8039 5.98247C68.1784 6.49459 67.9004 7.26278 67.9004 8.05424C67.9004 8.28703 67.9236 8.49653 67.9699 8.70604C68.0857 9.21816 68.3405 9.70701 68.5954 10.1493C68.8039 10.4985 69.0123 10.8244 69.244 11.1503C70.0085 12.1978 70.9814 13.1289 72.0934 13.804C72.6494 14.1532 73.2517 14.4558 73.8771 14.642C74.5721 14.8748 75.1976 15.1076 75.9389 14.9679C76.7265 14.8282 77.491 14.3161 77.8153 13.5712C77.9079 13.3384 77.9543 13.1057 77.908 12.8496C77.8385 12.3607 77.1666 12.0814 76.7728 11.8486Z" fill="white"/>
</svg>
