<svg width="182" height="28" viewBox="0 0 182 28" fill="none" xmlns="http://www.w3.org/2000/svg">
<path d="M43 6V0.239995H43.848L46.684 4.52V0.239995H47.532V6H46.684L43.848 1.71599V6H43Z" fill="#030303"/>
<path d="M54.9444 6.12C54.4938 6.12 54.0951 6.028 53.7484 5.844C53.4044 5.65733 53.1351 5.39733 52.9404 5.064C52.7458 4.728 52.6484 4.33333 52.6484 3.88V0.243995L53.4964 0.239995V3.836C53.4964 4.08133 53.5378 4.29733 53.6204 4.484C53.7031 4.67066 53.8138 4.82666 53.9524 4.95199C54.0911 5.07733 54.2458 5.172 54.4164 5.236C54.5898 5.3 54.7658 5.332 54.9444 5.332C55.1258 5.332 55.3018 5.3 55.4724 5.236C55.6458 5.16933 55.8018 5.07333 55.9404 4.948C56.0791 4.82266 56.1884 4.66666 56.2684 4.48C56.3511 4.29333 56.3924 4.07866 56.3924 3.836V0.239995H57.2404V3.88C57.2404 4.33066 57.1431 4.72399 56.9484 5.05999C56.7538 5.39599 56.4831 5.65733 56.1364 5.844C55.7924 6.028 55.3951 6.12 54.9444 6.12Z" fill="#030303"/>
<path d="M62.3594 6V0.239995H66.0394V1.028H63.1954V2.644H65.5594V3.432H63.1954V5.212H66.0394V6H62.3594Z" fill="#030303"/>
<path d="M72.352 6L70.48 0.239995H71.348L72.944 5.156L74.56 0.239995H75.428L73.556 6H72.352Z" fill="#030303"/>
<path d="M79.0687 6L80.9408 0.239995H82.1448L84.0168 6H83.1488L81.4248 0.743995H81.6407L79.9368 6H79.0687ZM80.0407 4.7V3.916H83.0488V4.7H80.0407Z" fill="#030303"/>
<path d="M94.3359 6V0.239995H96.6639C96.7199 0.239995 96.7893 0.242662 96.8719 0.247995C96.9546 0.250662 97.0333 0.258662 97.1079 0.271995C97.4279 0.322662 97.6946 0.431995 97.9079 0.599995C98.1239 0.767995 98.2853 0.979995 98.3919 1.23599C98.4986 1.492 98.5519 1.77466 98.5519 2.08399C98.5519 2.39599 98.4986 2.68 98.3919 2.936C98.2853 3.192 98.1239 3.40399 97.9079 3.57199C97.6946 3.73999 97.4279 3.84933 97.1079 3.89999C97.0333 3.91066 96.9533 3.91866 96.8679 3.924C96.7853 3.92933 96.7173 3.932 96.6639 3.932H95.1719V6H94.3359ZM95.1719 3.14H96.6319C96.6853 3.14 96.7439 3.13733 96.8079 3.132C96.8746 3.12666 96.9373 3.11733 96.9959 3.104C97.1666 3.064 97.3039 2.99066 97.4079 2.884C97.5119 2.77466 97.5866 2.64933 97.6319 2.508C97.6773 2.36666 97.6999 2.22533 97.6999 2.08399C97.6999 1.94266 97.6773 1.80266 97.6319 1.66399C97.5866 1.52266 97.5119 1.39866 97.4079 1.292C97.3039 1.18266 97.1666 1.108 96.9959 1.068C96.9373 1.05199 96.8746 1.04133 96.8079 1.036C96.7439 1.03066 96.6853 1.028 96.6319 1.028H95.1719V3.14Z" fill="#030303"/>
<path d="M103.432 6V0.239995H104.268V5.212H106.876V6H103.432Z" fill="#030303"/>
<path d="M111.155 6L113.027 0.239995H114.231L116.103 6H115.235L113.511 0.743995H113.727L112.023 6H111.155ZM112.127 4.7V3.916H115.135V4.7H112.127Z" fill="#030303"/>
<path d="M121.78 6V1.028H119.864V0.239995H124.532V1.028H122.616V6H121.78Z" fill="#030303"/>
<path d="M128.616 6L130.488 0.239995H131.692L133.564 6H132.696L130.972 0.743995H131.188L129.484 6H128.616ZM129.588 4.7V3.916H132.596V4.7H129.588Z" fill="#030303"/>
<path d="M138.281 6V0.239995H141.693V1.07599H139.117V2.7H141.213V3.54H139.117V6H138.281Z" fill="#030303"/>
<path d="M148.818 6.12C148.242 6.12 147.751 5.99466 147.346 5.744C146.941 5.49066 146.63 5.13866 146.414 4.68799C146.201 4.23733 146.094 3.71466 146.094 3.12C146.094 2.52533 146.201 2.00266 146.414 1.55199C146.63 1.10133 146.941 0.750662 147.346 0.499995C147.751 0.246662 148.242 0.119995 148.818 0.119995C149.391 0.119995 149.881 0.246662 150.286 0.499995C150.694 0.750662 151.005 1.10133 151.218 1.55199C151.431 2.00266 151.538 2.52533 151.538 3.12C151.538 3.71466 151.431 4.23733 151.218 4.68799C151.005 5.13866 150.694 5.49066 150.286 5.744C149.881 5.99466 149.391 6.12 148.818 6.12ZM148.818 5.324C149.226 5.32933 149.565 5.24 149.834 5.05599C150.106 4.86933 150.31 4.61066 150.446 4.27999C150.582 3.94666 150.65 3.56 150.65 3.12C150.65 2.68 150.582 2.296 150.446 1.968C150.31 1.63733 150.106 1.37999 149.834 1.19599C149.565 1.01199 149.226 0.918662 148.818 0.915995C148.41 0.910662 148.07 0.999995 147.798 1.18399C147.529 1.36799 147.326 1.62666 147.19 1.96C147.054 2.29333 146.985 2.68 146.982 3.12C146.979 3.56 147.046 3.94533 147.182 4.276C147.318 4.604 147.522 4.85999 147.794 5.04399C148.069 5.22799 148.41 5.32133 148.818 5.324Z" fill="#030303"/>
<path d="M156.336 6V0.239995H158.664C158.72 0.239995 158.789 0.242662 158.872 0.247995C158.955 0.250662 159.033 0.258662 159.108 0.271995C159.428 0.322662 159.695 0.431995 159.908 0.599995C160.124 0.767995 160.285 0.979995 160.392 1.23599C160.499 1.492 160.552 1.77466 160.552 2.08399C160.552 2.54266 160.435 2.93866 160.2 3.272C159.965 3.60266 159.613 3.80933 159.144 3.892L158.804 3.932H157.172V6H156.336ZM159.704 6L158.568 3.656L159.412 3.43999L160.66 6H159.704ZM157.172 3.14H158.632C158.685 3.14 158.744 3.13733 158.808 3.132C158.875 3.12666 158.937 3.11733 158.996 3.104C159.167 3.064 159.304 2.99066 159.408 2.884C159.512 2.77466 159.587 2.64933 159.632 2.508C159.677 2.36666 159.7 2.22533 159.7 2.08399C159.7 1.94266 159.677 1.80266 159.632 1.66399C159.587 1.52266 159.512 1.39866 159.408 1.292C159.304 1.18266 159.167 1.108 158.996 1.068C158.937 1.05199 158.875 1.04133 158.808 1.036C158.744 1.03066 158.685 1.028 158.632 1.028H157.172V3.14Z" fill="#030303"/>
<path d="M165.539 6V0.239995H166.295L168.383 4.572L170.459 0.239995H171.223V5.996H170.431V2.05599L168.571 6H168.191L166.327 2.05599V6H165.539Z" fill="#030303"/>
<path d="M175.944 6L177.816 0.239995H179.02L180.892 6H180.024L178.3 0.743995H178.516L176.812 6H175.944ZM176.916 4.7V3.916H179.924V4.7H176.916Z" fill="#030303"/>
<path d="M2.97412 13.6207L6.71567 24.5721L10.4572 13.6207H13.4313L8.49051 27.4765H4.89286L6.10352e-05 13.6207H2.97412Z" fill="white"/>
<path d="M25.1361 22.5735H17.1253C17.1733 23.5258 17.4131 24.24 17.8928 24.7162C18.3725 25.1923 18.9961 25.3828 19.7156 25.3828C20.3392 25.3828 20.9149 25.2399 21.3466 24.9066C21.7783 24.5733 22.0661 24.1924 22.162 23.621H25.0881C24.9442 24.3829 24.6564 25.0495 24.1767 25.6684C23.697 26.2874 23.0734 26.7636 22.3539 27.0969C21.5864 27.4302 20.771 27.6206 19.8595 27.6206C18.8042 27.6206 17.8449 27.3826 17.0294 26.954C16.2139 26.5255 15.5424 25.8589 15.1106 25.0018C14.631 24.1448 14.4391 23.1925 14.4391 22.0497C14.4391 20.907 14.6789 19.9071 15.1106 19.0976C15.5903 18.2406 16.2139 17.6216 17.0294 17.1455C17.8449 16.7169 18.8042 16.4789 19.8595 16.4789C20.9149 16.4789 21.8742 16.7169 22.6897 17.1455C23.5052 17.574 24.1288 18.193 24.5605 18.9548C24.9922 19.7166 25.232 20.6213 25.232 21.6212C25.232 21.9069 25.1841 22.2402 25.1361 22.5735ZM21.7303 19.3357C21.2027 18.8596 20.5791 18.6691 19.8595 18.6691C19.092 18.6691 18.4685 18.9072 17.9408 19.3357C17.4131 19.8119 17.1253 20.4785 17.0774 21.3355H22.4019C22.4499 20.4785 22.258 19.8119 21.7303 19.3357Z" fill="white"/>
<path d="M36.7447 17.6692C37.5122 18.4787 37.8479 19.669 37.8479 21.1451V27.4778H35.0658V21.4784C35.0658 20.6213 34.8259 19.9547 34.3942 19.4786C33.9625 19.0024 33.3389 18.7643 32.5714 18.7643C31.8039 18.7643 31.1323 19.0024 30.6526 19.5262C30.173 20.0499 29.9331 20.7642 29.9331 21.7164V27.4778H27.1509V16.6217H29.9331V18.812C30.2209 18.0977 30.7006 17.5264 31.3722 17.0978C32.0437 16.6693 32.8112 16.4789 33.6747 16.4789C34.9698 16.4789 35.9772 16.8598 36.7447 17.6692Z" fill="white"/>
<path d="M46.1459 25.095V27.4758H44.7068C43.4596 27.4758 42.5482 27.1901 41.8766 26.5711C41.2051 25.9521 40.9173 24.9998 40.9173 23.619V18.9052H39.3823V16.5721H40.9173V13.9056H43.6994V16.5721H46.1459V18.9052H43.6994V23.6666C43.6994 24.1904 43.7954 24.5713 44.0352 24.7617C44.2271 24.9522 44.6109 25.095 45.0905 25.095H46.1459V25.095Z" fill="white"/>
<path d="M54.8281 17.1455C55.4997 17.574 55.9314 18.1454 56.2192 18.9072V16.6693H59.0014V27.4778H56.2192V25.1923C55.9314 25.9065 55.4517 26.5255 54.8281 26.954C54.1566 27.3826 53.3891 27.6206 52.4777 27.6206C51.5662 27.6206 50.7028 27.3826 49.9833 26.954C49.2638 26.5255 48.6881 25.8589 48.2564 25.0018C47.8247 24.1448 47.6328 23.1925 47.6328 22.0497C47.6328 20.907 47.8247 19.9071 48.2564 19.0976C48.6881 18.2406 49.2638 17.6216 49.9833 17.1455C50.7028 16.7169 51.5662 16.4789 52.4777 16.4789C53.3891 16.4789 54.1566 16.6693 54.8281 17.1455ZM51.2305 19.7166C50.7028 20.288 50.463 21.0498 50.463 22.0497C50.463 23.0496 50.7028 23.8115 51.2305 24.3352C51.7581 24.9066 52.4777 25.1447 53.3411 25.1447C54.2045 25.1447 54.8761 24.859 55.4037 24.2876C55.9314 23.7162 56.2192 22.9544 56.2192 22.0021C56.2192 21.0498 55.9314 20.288 55.4037 19.7166C54.8761 19.1453 54.1566 18.8596 53.3411 18.8596C52.4297 18.9072 51.7581 19.1453 51.2305 19.7166Z" fill="white"/>
<path d="M71.0422 17.6692C71.8097 18.4787 72.1454 19.669 72.1454 21.1451V27.4778H69.3633V21.4784C69.3633 20.6213 69.1234 19.9547 68.6917 19.4786C68.26 19.0024 67.6364 18.7643 66.8689 18.7643C66.1014 18.7643 65.4298 19.0024 64.9501 19.5262C64.4705 20.0499 64.2306 20.7642 64.2306 21.7164V27.4778H61.4484V16.6217H64.2306V18.812C64.5184 18.0977 64.9981 17.5264 65.6697 17.0978C66.3412 16.6693 67.1087 16.4789 67.9722 16.4789C69.2673 16.4789 70.2747 16.8598 71.0422 17.6692Z" fill="white"/>
<path d="M81.2595 17.1455C81.9311 17.574 82.3628 18.1454 82.6506 18.9072V16.6693H85.4328V27.4778H82.6506V25.1923C82.3628 25.9065 81.8831 26.5255 81.2595 26.954C80.5879 27.3826 79.8204 27.6206 78.909 27.6206C77.9976 27.6206 77.1342 27.3826 76.4147 26.954C75.6951 26.5255 75.1195 25.8589 74.6878 25.0018C74.2561 24.1448 74.0642 23.1925 74.0642 22.0497C74.0642 20.907 74.2561 19.9071 74.6878 19.0976C75.1195 18.2406 75.6951 17.6216 76.4147 17.1455C77.1342 16.7169 77.9976 16.4789 78.909 16.4789C79.8204 16.4789 80.6359 16.6693 81.2595 17.1455ZM77.6619 19.7166C77.1342 20.288 76.8944 21.0498 76.8944 22.0497C76.8944 23.0496 77.1342 23.8115 77.6619 24.3352C78.1895 24.9066 78.909 25.1447 79.7725 25.1447C80.6359 25.1447 81.3075 24.859 81.8351 24.2876C82.3628 23.7162 82.6506 22.9544 82.6506 22.0021C82.6506 21.0498 82.3628 20.288 81.8351 19.7166C81.3075 19.1453 80.5879 18.8596 79.7725 18.8596C78.909 18.9072 78.1895 19.1453 77.6619 19.7166Z" fill="white"/>
<path d="M141.988 22.2387C141.988 23.6671 143.139 24.8099 144.578 24.8099C146.017 24.8099 147.121 23.6671 147.121 22.2387C147.121 20.8102 146.017 19.6675 144.578 19.6675C143.139 19.6675 141.988 20.8102 141.988 22.2387ZM144.578 16.5725C148.8 16.5725 150.862 19.4294 150.862 22.2863C150.862 25.1432 148.752 28 144.578 28C140.261 28 138.151 25.0955 138.198 22.2387C138.198 19.3818 140.357 16.5725 144.578 16.5725Z" fill="#005F27"/>
<path d="M125.343 16.763H128.365L129.036 18.0962H129.084C130.044 17.0011 131.003 16.5725 132.538 16.5725C135.128 16.5725 136.567 18.1438 136.567 20.6674V27.6667H132.778V22.0006C132.778 20.715 132.586 19.5246 131.051 19.5246C129.708 19.5246 129.084 20.4769 129.084 21.7149V27.6667H125.295L125.343 16.763Z" fill="#005F27"/>
<path d="M91.2369 27.6653L93.9231 13H98.1923L100.927 19.9041L101.118 20.666L101.262 19.9041L104.045 13H108.314L110.952 27.7129H106.923L105.58 18.7138L105.34 19.5708L101.934 27.6653H100.255L96.8972 19.5232L96.6573 18.7138L95.3142 27.6653H91.2369Z" fill="#005F27"/>
<path d="M177.916 23.7625V22.9055L177.053 22.9531C175.806 23.0007 174.99 23.4292 174.99 24.2863C174.99 25.0005 175.566 25.2862 176.141 25.2862C177.101 25.3338 177.916 24.7624 177.916 23.7625ZM179.02 27.7145L178.3 26.3337H178.204C177.197 27.5717 175.95 27.9526 174.415 27.9526C172.304 27.9526 171.105 26.5242 171.105 24.4768C171.105 21.6675 173.743 21.0485 176.045 20.9533C176.669 20.9533 177.245 20.9533 177.82 20.9057C177.82 20.001 177.485 19.4296 176.477 19.4296C175.662 19.4296 174.654 19.7153 173.455 20.2391L172.352 17.7631C173.599 17.0965 175.23 16.8108 177.149 16.8108C179.643 16.8108 181.514 18.0964 181.514 20.7152V27.7622L179.02 27.7145Z" fill="#005F27"/>
<path d="M166.116 27.9518C162.566 27.9518 160.648 25.8091 160.648 22.3333C160.648 18.7622 162.854 16.6195 166.452 16.6195C167.747 16.6195 168.946 16.9052 170.05 17.429L168.946 20.2382C168.467 20.0478 168.035 19.8573 167.651 19.7621C167.267 19.6669 166.884 19.5716 166.452 19.5716C163.862 19.5716 163.718 24.9045 166.452 24.9045C167.555 24.9045 168.611 24.5712 169.666 23.9522V26.9519C168.706 27.6185 167.507 27.9518 166.116 27.9518Z" fill="#005F27"/>
<path d="M159.065 16.6195C159.449 16.6195 159.832 16.6672 160.216 16.7148L159.88 20.2859C159.592 20.1906 159.161 20.1906 158.585 20.1906C157.77 20.1906 157.146 20.3811 156.762 20.762C156.379 21.1429 156.187 21.6667 156.187 22.3809V27.7137H152.397V16.81H155.227L155.803 18.5717H155.995C156.618 17.4766 157.818 16.6195 159.065 16.6195Z" fill="#005F27"/>
<path d="M120.21 20.715C119.97 19.6675 119.107 19.0009 118.051 19.0009C116.948 19.0009 116.085 19.5723 115.845 20.715H120.21ZM123.76 22.9053H115.749C115.797 24.4289 116.516 25.3336 118.099 25.3336C118.915 25.3336 119.586 25.0003 120.018 24.3337H123.568C122.8 26.8573 120.69 28 118.099 28C114.598 28 111.863 25.9526 111.863 22.3339C111.863 18.62 114.502 16.5725 118.099 16.5725C121.937 16.5725 123.76 19.3818 123.76 22.9053Z" fill="#005F27"/>
</svg>
